<svg xmlns="http://www.w3.org/2000/svg" width="91.642" height="77.149" viewBox="0 0 91.642 77.149">
  <defs>
    <style>
      .cls-1, .cls-2, .cls-6 {
        fill: #fff;
      }

      .cls-2, .cls-3, .cls-4 {
        stroke: #528ec1;
      }

      .cls-2, .cls-4, .cls-6 {
        stroke-linecap: round;
      }

      .cls-2, .cls-3, .cls-6 {
        stroke-width: 3px;
      }

      .cls-3, .cls-5, .cls-9 {
        fill: #528ec1;
      }

      .cls-4, .cls-8 {
        fill: none;
      }

      .cls-4 {
        stroke-width: 4.5px;
      }

      .cls-6 {
        stroke: #fff;
      }

      .cls-7, .cls-9 {
        stroke: none;
      }
    </style>
  </defs>
  <g id="Group_163" data-name="Group 163" transform="translate(-881 -853.425)">
    <rect id="Rectangle_79" data-name="Rectangle 79" class="cls-1" width="89" height="61" transform="translate(881 860)"/>
    <g id="Rectangle_82" data-name="Rectangle 82" class="cls-2" transform="matrix(0.719, 0.695, -0.695, 0.719, 926.302, 853.425)">
      <rect class="cls-7" width="51" height="58" rx="3"/>
      <rect class="cls-8" x="1.5" y="1.5" width="48" height="55" rx="1.5"/>
    </g>
    <g id="Ellipse_8" data-name="Ellipse 8" class="cls-3" transform="translate(922 881)">
      <circle class="cls-7" cx="6" cy="6" r="6"/>
      <circle class="cls-8" cx="6" cy="6" r="4.5"/>
    </g>
    <line id="Line_56" data-name="Line 56" class="cls-4" x1="24" y1="24" transform="translate(904.5 863.5)"/>
    <g id="Path_46" data-name="Path 46" class="cls-5" transform="translate(959 899)">
      <path class="cls-7" d="M 6.8211669921875 9.000004768371582 C 3.887067079544067 9.000004768371582 1.499997019767761 6.662395000457764 1.499997019767761 3.789074897766113 C 1.499997019767761 1.558591485023499 3.120854377746582 -3.792245149612427 4.296399116516113 -7.313981533050537 C 5.200568199157715 -6.323245048522949 6.36491870880127 -5.010998249053955 7.520387172698975 -3.606174945831299 C 11.91950702667236 1.74227499961853 12.14233684539795 3.492525100708008 12.14233684539795 3.789074897766113 C 12.14233684539795 6.662395000457764 9.755267143249512 9.000004768371582 6.8211669921875 9.000004768371582 Z"/>
      <path class="cls-9" d="M 4.918281555175781 -4.360200881958008 C 3.89225959777832 -1.053845763206482 2.999997138977051 2.342843294143677 2.999997138977051 3.789074897766113 C 2.999997138977051 5.835285186767578 4.714166641235352 7.499995231628418 6.8211669921875 7.499995231628418 C 8.911319732666016 7.499995231628418 10.61490058898926 5.861685752868652 10.64200973510742 3.837969779968262 C 10.60048389434814 3.624083995819092 10.16327571868896 1.929306745529175 6.164046764373779 -2.892884969711304 C 5.743613243103027 -3.399837970733643 5.323761940002441 -3.89288854598999 4.918281555175781 -4.360200881958008 M 3.691646575927734 -10.15625476837158 C 3.691646575927734 -10.15625476837158 13.64233684539795 0.08273500204086304 13.64233684539795 3.789074897766113 C 13.64233684539795 7.495415210723877 10.58839702606201 10.49999523162842 6.8211669921875 10.49999523162842 C 3.053936958312988 10.49999523162842 -2.86102294921875e-06 7.495415210723877 -2.86102294921875e-06 3.789074897766113 C -2.86102294921875e-06 0.08273500204086304 3.691646575927734 -10.15625476837158 3.691646575927734 -10.15625476837158 Z"/>
    </g>
    <g id="Rectangle_83" data-name="Rectangle 83" class="cls-2" transform="matrix(0.719, 0.695, -0.695, 0.719, 926.302, 853.425)">
      <rect class="cls-7" width="51" height="12"/>
      <rect class="cls-8" x="1.5" y="1.5" width="48" height="9"/>
    </g>
    <g id="Rectangle_84" data-name="Rectangle 84" class="cls-6" transform="matrix(0.719, 0.695, -0.695, 0.719, 925.681, 858.387)">
      <rect class="cls-7" width="45" height="10"/>
      <rect class="cls-8" x="1.5" y="1.5" width="42" height="7"/>
    </g>
  </g>
</svg>
